<svg width="60" height="60" viewBox="0 0 60 60" fill="none" xmlns="http://www.w3.org/2000/svg">
<g clip-path="url(#clip0_202_1029)">
<path d="M8.1356 27.5576C7.57402 27.5576 7.11871 28.0129 7.11871 28.5745V32.6421C7.11871 33.2036 7.57402 33.6589 8.1356 33.6589C8.69717 33.6589 9.15248 33.2036 9.15248 32.6421V28.5745C9.15248 28.0129 8.69717 27.5576 8.1356 27.5576Z" fill="white"/>
<path d="M8.1356 27.5576C7.57402 27.5576 7.11871 28.0129 7.11871 28.5745V32.6421C7.11871 33.2036 7.57402 33.6589 8.1356 33.6589C8.69717 33.6589 9.15248 33.2036 9.15248 32.6421V28.5745C9.15248 28.0129 8.69717 27.5576 8.1356 27.5576Z" fill="url(#paint0_linear_202_1029)"/>
<path d="M12.2031 29.5913C11.6416 29.5913 11.1862 30.0466 11.1862 30.6082V34.6757C11.1862 35.2373 11.6416 35.6926 12.2031 35.6926C12.7647 35.6926 13.22 35.2373 13.22 34.6757V30.6082C13.22 30.0466 12.7647 29.5913 12.2031 29.5913Z" fill="white"/>
<path d="M12.2031 29.5913C11.6416 29.5913 11.1862 30.0466 11.1862 30.6082V34.6757C11.1862 35.2373 11.6416 35.6926 12.2031 35.6926C12.7647 35.6926 13.22 35.2373 13.22 34.6757V30.6082C13.22 30.0466 12.7647 29.5913 12.2031 29.5913Z" fill="url(#paint1_linear_202_1029)"/>
<path d="M56.4159 44.9163C55.4307 41.5033 53.0064 38.6893 49.7768 37.2098V14.7366C49.7769 14.377 49.587 14.0441 49.2775 13.8611L26.906 0.64157C26.5867 0.45281 26.19 0.45281 25.8708 0.64157L3.49929 13.8611C3.47794 13.8733 3.46268 13.8916 3.44235 13.9058C3.42201 13.9201 3.40269 13.9363 3.38235 13.9526C3.29401 14.0221 3.21812 14.106 3.15762 14.2007C3.15762 14.2079 3.14541 14.2119 3.14135 14.219V14.2262C3.08402 14.3295 3.04512 14.442 3.02644 14.5587C3.02644 14.5892 3.01729 14.6177 3.01424 14.6482C3.01119 14.6787 3 14.7061 3 14.7366V41.1757C2.99987 41.5353 3.18978 41.8682 3.49929 42.0512L25.8708 55.2708C25.8976 55.2837 25.9251 55.2953 25.9532 55.3053C25.9809 55.3192 26.0095 55.3314 26.0386 55.3419C26.2624 55.4355 26.5144 55.4355 26.7382 55.3419C26.7677 55.3314 26.7965 55.3192 26.8246 55.3053C26.8511 55.2931 26.8796 55.286 26.906 55.2708L32.9778 51.6822C34.8462 58.1544 41.6075 61.8866 48.0799 60.0182C54.5521 58.1499 58.2843 51.3885 56.4159 44.9163ZM26.3884 2.69771L31.6762 5.82261L23.836 10.4555C23.3522 10.7414 23.1917 11.3654 23.4776 11.8492C23.7634 12.333 24.3874 12.4935 24.8712 12.2076L33.6764 7.0083L38.9642 10.1332L18.5919 22.168L13.3041 19.0432L21.8226 14.0096C22.3064 13.7237 22.4669 13.0997 22.181 12.6159C21.8952 12.1321 21.2712 11.9716 20.7874 12.2575L11.3049 17.8615L6.01609 14.7366L26.3884 2.69771ZM17.575 23.9303V30.7201L12.3218 27.6155V20.8258L17.575 23.9303ZM32.8915 45.1504C32.621 46.1762 32.4859 47.233 32.4897 48.2939C32.49 48.7195 32.5123 49.1448 32.5568 49.5681L27.4053 52.6136V49.3108C27.4053 48.7492 26.95 48.2939 26.3884 48.2939C25.8268 48.2939 25.3715 48.7492 25.3715 49.3108V52.6136L5.03377 40.5961V16.5192L10.288 19.6238V28.1951C10.2876 28.5551 10.4774 28.8885 10.7873 29.0717L18.0743 33.3782C18.2312 33.4705 18.4099 33.5193 18.5919 33.5196C19.1535 33.5196 19.6088 33.0642 19.6088 32.5027V25.1313L25.3715 28.5368V45.2432C25.3715 45.8048 25.8268 46.2601 26.3884 46.2601C26.95 46.2601 27.4053 45.8048 27.4053 45.2432V28.5368L45.8353 17.646C46.3189 17.3601 46.4792 16.7363 46.1933 16.2528C45.9074 15.7693 45.2837 15.609 44.8001 15.8949L26.3884 26.7756L20.5921 23.3497L40.9644 11.3107L47.743 15.3163V36.498C41.2526 34.7862 34.6033 38.6599 32.8915 45.1504ZM44.6924 58.4628C39.0762 58.4628 34.5235 53.91 34.5235 48.2939C34.5235 42.6778 39.0762 38.125 44.6924 38.125C50.3085 38.125 54.8612 42.6778 54.8612 48.2939C54.8551 53.9075 50.3059 58.4565 44.6924 58.4628Z" fill="white"/>
<path d="M56.4159 44.9163C55.4307 41.5033 53.0064 38.6893 49.7768 37.2098V14.7366C49.7769 14.377 49.587 14.0441 49.2775 13.8611L26.906 0.64157C26.5867 0.45281 26.19 0.45281 25.8708 0.64157L3.49929 13.8611C3.47794 13.8733 3.46268 13.8916 3.44235 13.9058C3.42201 13.9201 3.40269 13.9363 3.38235 13.9526C3.29401 14.0221 3.21812 14.106 3.15762 14.2007C3.15762 14.2079 3.14541 14.2119 3.14135 14.219V14.2262C3.08402 14.3295 3.04512 14.442 3.02644 14.5587C3.02644 14.5892 3.01729 14.6177 3.01424 14.6482C3.01119 14.6787 3 14.7061 3 14.7366V41.1757C2.99987 41.5353 3.18978 41.8682 3.49929 42.0512L25.8708 55.2708C25.8976 55.2837 25.9251 55.2953 25.9532 55.3053C25.9809 55.3192 26.0095 55.3314 26.0386 55.3419C26.2624 55.4355 26.5144 55.4355 26.7382 55.3419C26.7677 55.3314 26.7965 55.3192 26.8246 55.3053C26.8511 55.2931 26.8796 55.286 26.906 55.2708L32.9778 51.6822C34.8462 58.1544 41.6075 61.8866 48.0799 60.0182C54.5521 58.1499 58.2843 51.3885 56.4159 44.9163ZM26.3884 2.69771L31.6762 5.82261L23.836 10.4555C23.3522 10.7414 23.1917 11.3654 23.4776 11.8492C23.7634 12.333 24.3874 12.4935 24.8712 12.2076L33.6764 7.0083L38.9642 10.1332L18.5919 22.168L13.3041 19.0432L21.8226 14.0096C22.3064 13.7237 22.4669 13.0997 22.181 12.6159C21.8952 12.1321 21.2712 11.9716 20.7874 12.2575L11.3049 17.8615L6.01609 14.7366L26.3884 2.69771ZM17.575 23.9303V30.7201L12.3218 27.6155V20.8258L17.575 23.9303ZM32.8915 45.1504C32.621 46.1762 32.4859 47.233 32.4897 48.2939C32.49 48.7195 32.5123 49.1448 32.5568 49.5681L27.4053 52.6136V49.3108C27.4053 48.7492 26.95 48.2939 26.3884 48.2939C25.8268 48.2939 25.3715 48.7492 25.3715 49.3108V52.6136L5.03377 40.5961V16.5192L10.288 19.6238V28.1951C10.2876 28.5551 10.4774 28.8885 10.7873 29.0717L18.0743 33.3782C18.2312 33.4705 18.4099 33.5193 18.5919 33.5196C19.1535 33.5196 19.6088 33.0642 19.6088 32.5027V25.1313L25.3715 28.5368V45.2432C25.3715 45.8048 25.8268 46.2601 26.3884 46.2601C26.95 46.2601 27.4053 45.8048 27.4053 45.2432V28.5368L45.8353 17.646C46.3189 17.3601 46.4792 16.7363 46.1933 16.2528C45.9074 15.7693 45.2837 15.609 44.8001 15.8949L26.3884 26.7756L20.5921 23.3497L40.9644 11.3107L47.743 15.3163V36.498C41.2526 34.7862 34.6033 38.6599 32.8915 45.1504ZM44.6924 58.4628C39.0762 58.4628 34.5235 53.91 34.5235 48.2939C34.5235 42.6778 39.0762 38.125 44.6924 38.125C50.3085 38.125 54.8612 42.6778 54.8612 48.2939C54.8551 53.9075 50.3059 58.4565 44.6924 58.4628Z" fill="url(#paint2_linear_202_1029)"/>
<path d="M48.4882 44.2855C48.0941 43.9048 47.4693 43.9048 47.0752 44.2855L43.2182 48.1426L42.4118 47.3362C42.0078 46.946 41.3641 46.9571 40.9739 47.3611C40.5932 47.7551 40.5932 48.38 40.9739 48.7741L42.4992 50.2994C42.8963 50.6964 43.54 50.6964 43.9371 50.2994L48.5131 45.7234C48.9033 45.3194 48.8921 44.6756 48.4882 44.2855Z" fill="white"/>
<path d="M48.4882 44.2855C48.0941 43.9048 47.4693 43.9048 47.0752 44.2855L43.2182 48.1426L42.4118 47.3362C42.0078 46.946 41.3641 46.9571 40.9739 47.3611C40.5932 47.7551 40.5932 48.38 40.9739 48.7741L42.4992 50.2994C42.8963 50.6964 43.54 50.6964 43.9371 50.2994L48.5131 45.7234C48.9033 45.3194 48.8921 44.6756 48.4882 44.2855Z" fill="url(#paint3_linear_202_1029)"/>
</g>
<defs>
<linearGradient id="paint0_linear_202_1029" x1="7.11871" y1="28.0511" x2="9.59852" y2="28.2558" gradientUnits="userSpaceOnUse">
<stop offset="0.197174" stop-color="#9B51E0"/>
<stop offset="1" stop-color="#3081ED" stop-opacity="0.8"/>
</linearGradient>
<linearGradient id="paint1_linear_202_1029" x1="11.1862" y1="30.0848" x2="13.6661" y2="30.2895" gradientUnits="userSpaceOnUse">
<stop offset="0.197174" stop-color="#9B51E0"/>
<stop offset="1" stop-color="#3081ED" stop-opacity="0.8"/>
</linearGradient>
<linearGradient id="paint2_linear_202_1029" x1="3" y1="5.35294" x2="66.0457" y2="19.3785" gradientUnits="userSpaceOnUse">
<stop offset="0.197174" stop-color="#9B51E0"/>
<stop offset="1" stop-color="#3081ED" stop-opacity="0.8"/>
</linearGradient>
<linearGradient id="paint3_linear_202_1029" x1="40.6884" y1="44.5336" x2="49.8001" y2="47.3077" gradientUnits="userSpaceOnUse">
<stop offset="0.197174" stop-color="#9B51E0"/>
<stop offset="1" stop-color="#3081ED" stop-opacity="0.8"/>
</linearGradient>
<clipPath id="clip0_202_1029">
<rect width="60" height="60" fill="white"/>
</clipPath>
</defs>
</svg>
