<svg width="28" height="28" viewBox="0 0 28 28" fill="none" xmlns="http://www.w3.org/2000/svg">
<g id="check-mark-button" clip-path="url(#clip0_202_764)">
<g id="Group">
<g id="Group_2">
<path id="Vector" d="M14 0C6.28042 0 0 6.28042 0 14C0 21.7196 6.28042 28 14 28C21.7196 28 28 21.7196 28 14C27.9995 6.28042 21.7196 0 14 0ZM14 25.7435C7.52454 25.7435 2.25651 20.4755 2.25651 13.9995C2.25651 7.52404 7.52454 2.25601 14 2.25601C20.4755 2.25601 25.7435 7.52454 25.7435 14C25.7435 20.4755 20.4755 25.7435 14 25.7435Z" fill="#27AE60"/>
<path id="Vector_2" d="M18.4627 9.5357L11.9279 16.071L9.53669 13.6798C9.09635 13.2389 8.38205 13.2389 7.94171 13.6798C7.50086 14.1201 7.50086 14.8344 7.94171 15.2747L11.1307 18.4637C11.3508 18.6839 11.6399 18.7945 11.9284 18.7945C12.217 18.7945 12.5055 18.6844 12.7257 18.4637L20.0582 11.1312C20.4985 10.6903 20.4985 9.97655 20.0582 9.5357C19.6173 9.09536 18.9035 9.09536 18.4627 9.5357Z" fill="#27AE60"/>
</g>
</g>
</g>
<defs>
<clipPath id="clip0_202_764">
<rect width="28" height="28" fill="white"/>
</clipPath>
</defs>
</svg>
