<svg width="60" height="60" viewBox="0 0 60 60" fill="none" xmlns="http://www.w3.org/2000/svg">
<g id="Component 1">
<g id="&#208;&#146;&#209;&#139;&#208;&#177;&#208;&#190;&#209;&#128;">
<rect id="Rectangle 2" x="4.49995" y="6.5" width="23.8044" height="44.4821" rx="3.5" stroke="white" stroke-width="3"/>
<path id="Rectangle 2.1" d="M35.6299 11.1139L45.0407 16.3865C46.7271 17.3314 47.3282 19.4643 46.3834 21.1507L36.5666 38.6721C34.8077 41.8114 30.0254 40.5717 30.0132 36.9732L29.9878 29.4667L30.4205 14.069C30.4944 11.4391 33.3346 9.82796 35.6299 11.1139Z" stroke="white" stroke-width="3"/>
<path id="Rectangle 2.2" d="M51.484 25.6821L53.6705 28.8683C54.7642 30.4621 54.3588 32.6408 52.765 33.7345L46.5801 37.9789C43.6441 39.9937 39.9457 36.8091 41.4901 33.611L45.5046 26.0254C46.7353 23.7 49.9953 23.5129 51.484 25.6821Z" stroke="white" stroke-width="3"/>
<line id="Line" x1="3.76579" y1="19.5826" x2="29.0385" y2="19.5826" stroke="white" stroke-width="3"/>
<line id="Line_2" x1="29.6806" y1="18.1954" x2="44.2316" y2="25.0879" stroke="white" stroke-width="3"/>
<line id="Line_3" x1="43.0889" y1="29.1833" x2="50.3318" y2="36.0381" stroke="white" stroke-width="3"/>
<line id="Line_4" x1="29.6671" y1="31.2083" x2="39.623" y2="35.8034" stroke="white" stroke-width="3"/>
<line id="Line_5" x1="3.76579" y1="34.8995" x2="29.0385" y2="34.8995" stroke="white" stroke-width="3"/>
</g>
</g>
</svg>
