<svg width="60" height="60" viewBox="0 0 60 60" fill="none" xmlns="http://www.w3.org/2000/svg">
<g id="Component 1">
<g id="&#208;&#154;&#209;&#128;&#208;&#181;&#208;&#191;&#208;&#181;&#208;&#182;">
<circle id="Ellipse" cx="29.9687" cy="30.5101" r="8.57719" stroke="white" stroke-width="4"/>
<g id="Group 2">
<g id="Ellipse_2">
<mask id="path-2-inside-1_379_41" fill="white">
<path d="M12.613 22.0982C14.5343 18.4355 17.7198 15.4965 21.6466 13.7638C25.5733 12.031 30.0079 11.6074 34.2222 12.5626C38.4365 13.5178 42.1801 15.7949 44.8383 19.0202C47.4965 22.2454 48.9114 26.2271 48.8506 30.3114L47.1933 30.2904C47.2488 26.5603 45.9566 22.924 43.529 19.9785C41.1013 17.033 37.6825 14.9534 33.8337 14.0811C29.9849 13.2088 25.935 13.5956 22.3488 15.1781C18.7627 16.7605 15.8534 19.4446 14.0988 22.7896L12.613 22.0982Z"/>
</mask>
<path d="M12.613 22.0982C14.5343 18.4355 17.7198 15.4965 21.6466 13.7638C25.5733 12.031 30.0079 11.6074 34.2222 12.5626C38.4365 13.5178 42.1801 15.7949 44.8383 19.0202C47.4965 22.2454 48.9114 26.2271 48.8506 30.3114L47.1933 30.2904C47.2488 26.5603 45.9566 22.924 43.529 19.9785C41.1013 17.033 37.6825 14.9534 33.8337 14.0811C29.9849 13.2088 25.935 13.5956 22.3488 15.1781C18.7627 16.7605 15.8534 19.4446 14.0988 22.7896L12.613 22.0982Z" stroke="white" stroke-width="6" mask="url(#path-2-inside-1_379_41)"/>
</g>
<rect id="Rectangle 2" x="47.2025" y="29.1276" width="12.7974" height="1.31751" fill="white"/>
</g>
<g id="Group 2.1">
<g id="Ellipse_3">
<mask id="path-4-inside-2_379_41" fill="white">
<path d="M46.1862 39.7364C44.0863 43.0833 40.9026 45.6919 37.1135 47.1703C33.3243 48.6487 29.1342 48.9171 25.1727 47.9351C21.2111 46.9531 17.6919 44.7738 15.1437 41.7246C12.5956 38.6753 11.156 34.9207 11.0413 31.0248L12.6813 30.9801C12.786 34.5381 14.1007 37.9671 16.4279 40.7519C18.755 43.5367 21.969 45.5269 25.5869 46.4237C29.2049 47.3206 33.0315 47.0755 36.492 45.7253C39.9526 44.3751 42.8601 41.9928 44.7779 38.9361L46.1862 39.7364Z"/>
</mask>
<path d="M46.1862 39.7364C44.0863 43.0833 40.9026 45.6919 37.1135 47.1703C33.3243 48.6487 29.1342 48.9171 25.1727 47.9351C21.2111 46.9531 17.6919 44.7738 15.1437 41.7246C12.5956 38.6753 11.156 34.9207 11.0413 31.0248L12.6813 30.9801C12.786 34.5381 14.1007 37.9671 16.4279 40.7519C18.755 43.5367 21.969 45.5269 25.5869 46.4237C29.2049 47.3206 33.0315 47.0755 36.492 45.7253C39.9526 44.3751 42.8601 41.9928 44.7779 38.9361L46.1862 39.7364Z" stroke="white" stroke-width="6" mask="url(#path-4-inside-2_379_41)"/>
</g>
<rect id="Rectangle 2_2" x="12.6671" y="31.4518" width="12.6671" height="1.31751" transform="rotate(180 12.6671 31.4518)" fill="white"/>
</g>
</g>
</g>
</svg>
