<svg width="60" height="60" viewBox="0 0 60 60" fill="none" xmlns="http://www.w3.org/2000/svg">
<g id="Component 1">
<path id="Vector" d="M52.4042 4L44.3124 4.0144L43.6821 4.01095L43.3691 4.54736L39.4115 11.3318L32.627 11.3462L29.0331 5.19556L28.7306 4.65165L28.1005 4.64474L20.0089 4.65903L19.3752 4.65534L19.0654 5.19187L15.1474 11.9114L7.59244 11.9258L6.96211 11.9224L6.6489 12.4589L2.60498 19.3946L2.29523 19.9312L2.61558 20.4714L6.20237 26.6111L2.31321 33.2875L2 33.824L2.32058 34.3643L6.36819 41.2892L6.66699 41.8365L7.30078 41.84L15.1151 41.8257L18.6908 47.9366L18.9898 48.4839L19.6236 48.4877L27.4128 48.4733L31.0066 54.624L31.3092 55.1676L31.9395 55.175L40.031 55.1606L40.6432 55.1712L40.9566 54.6347L44.8924 47.9079L52.4476 47.8936L53.0598 47.9044L53.3695 47.3679L57.435 40.425L57.7447 39.8885L57.4244 39.3483L53.3767 32.4234L53.0778 31.8795L52.444 31.8725L44.6549 31.8868L41.5217 26.5284L45.3175 20.0357L52.4079 20.0213L53.0201 20.0322L53.3298 19.4957L57.3918 12.5528L57.7052 12.0162L57.3845 11.4759L53.3369 4.55105L53.0381 4.00737L52.4043 4.00023L52.4042 4ZM51.7883 6.14981L55.1877 12.0376L51.7848 17.8786L44.9318 17.8893L41.518 12.0233L44.9354 6.15719L51.7884 6.14981H51.7883ZM15.0683 14.0613L18.4677 19.9491L15.0646 25.7901L8.21159 25.801L4.79789 19.9347L8.21528 14.0687L15.0683 14.0615V14.0613ZM27.3874 20.7449L30.675 26.449L27.1749 32.4556L20.5167 32.4665L17.1173 26.6221L20.5346 20.7559L27.3876 20.7451L27.3874 20.7449ZM39.5231 27.3529L42.9081 33.2227L39.505 39.0674L32.6523 39.0743L29.3428 33.3883L32.8647 27.3638L39.5231 27.3529ZM51.8278 34.0221L55.2272 39.91L51.8243 45.751L44.9714 45.7582L41.5577 39.8956L44.975 34.0294L51.828 34.0221H51.8278ZM27.1066 34.6202L30.4952 40.4933L27.0923 46.3343L20.2393 46.3416L16.8255 40.4754L20.2318 34.631L27.1063 34.6202H27.1066Z" fill="white"/>
</g>
</svg>
