<svg width="61" height="60" viewBox="0 0 61 60" fill="none" xmlns="http://www.w3.org/2000/svg">
<g id="Component 1">
<path id="Vector" d="M19.6501 10.7918C19.6501 7.92961 20.7871 5.18468 22.8109 3.16083C24.8348 1.13699 27.5797 0 30.4419 0C33.304 0 36.0489 1.13699 38.0728 3.16083C40.0966 5.18468 41.2336 7.92961 41.2336 10.7918V34.3178C43.3157 36.4428 44.7241 39.1353 45.2821 42.0575C45.8402 44.9798 45.5231 48.0017 44.3706 50.7444C43.2181 53.4872 41.2815 55.8286 38.8036 57.4751C36.3257 59.1217 33.4169 60 30.4419 60C27.4668 60 24.558 59.1217 22.0801 57.4751C19.6022 55.8286 17.6656 53.4872 16.5131 50.7444C15.3606 48.0017 15.0435 44.9798 15.6016 42.0575C16.1596 39.1353 17.568 36.4428 19.6501 34.3178V10.7918ZM30.4419 4.31671C28.7246 4.31671 27.0776 4.9989 25.8633 6.21321C24.649 7.42751 23.9668 9.07447 23.9668 10.7918V36.2042L23.2502 36.8517C21.621 38.3087 20.4725 40.226 19.9569 42.35C19.4412 44.474 19.5827 46.7045 20.3625 48.7464C21.1423 50.7882 22.5237 52.5451 24.3239 53.7846C26.1242 55.0242 28.2583 55.6878 30.444 55.6878C32.6297 55.6878 34.7639 55.0242 36.5641 53.7846C38.3643 52.5451 39.7457 50.7882 40.5255 48.7464C41.3054 46.7045 41.4468 44.474 40.9311 42.35C40.4155 40.226 39.267 38.3087 37.6378 36.8517L36.9169 36.1999V10.7918C36.9169 9.07447 36.2347 7.42751 35.0204 6.21321C33.8061 4.9989 32.1591 4.31671 30.4419 4.31671ZM32.6002 21.5835C32.6002 21.0111 32.3728 20.4621 31.968 20.0573C31.5633 19.6526 31.0143 19.4252 30.4419 19.4252C29.8694 19.4252 29.3204 19.6526 28.9157 20.0573C28.5109 20.4621 28.2835 21.0111 28.2835 21.5835V39.2173C26.8434 39.7264 25.6297 40.7283 24.8568 42.0457C24.084 43.3632 23.8017 44.9115 24.06 46.417C24.3183 47.9224 25.1005 49.2881 26.2683 50.2726C27.4361 51.2571 28.9144 51.7971 30.4419 51.7971C31.9693 51.7971 33.4476 51.2571 34.6154 50.2726C35.7832 49.2881 36.5654 47.9224 36.8237 46.417C37.0819 44.9115 36.7997 43.3632 36.0269 42.0457C35.254 40.7283 34.0403 39.7264 32.6002 39.2173V21.5835Z" fill="white"/>
</g>
</svg>
