<svg width="61" height="60" viewBox="0 0 61 60" fill="none" xmlns="http://www.w3.org/2000/svg">
<g id="Component 1">
<g id="&#208;&#168;&#208;&#178;&#208;&#176;&#208;&#177;&#209;&#128;&#208;&#176;">
<g id="Group 5">
<path id="Rectangle 2" d="M37.0478 13.3332L35.4926 27.8478H26.8371L24.7944 13.5486C24.2629 9.82842 27.1496 6.5 30.9076 6.5C34.5785 6.5 37.4389 9.6832 37.0478 13.3332Z" stroke="white" stroke-width="3"/>
<path id="Rectangle 3" d="M19.0144 29.1087H42.4927C47.1871 29.1087 50.9927 32.9143 50.9927 37.6087V38.2826H10.5144V37.6087C10.5144 32.9143 14.32 29.1087 19.0144 29.1087Z" stroke="white" stroke-width="3"/>
<path id="Vector" d="M4.6666 55L12.9275 39.3478L13.3622 38.9131L48.5796 39.3478L56.8405 55H52.4927L51.6231 53.2609L50.3188 55H40.3188L38.1449 48.0435L35.1014 55H19.884L19.0144 52.3913L16.4057 55H4.6666Z" stroke="white" stroke-width="3"/>
</g>
<circle id="Ellipse" cx="30.7536" cy="11.087" r="1.73913" fill="white"/>
</g>
</g>
</svg>
