<svg width="566" height="420" viewBox="0 0 566 420" fill="none" xmlns="http://www.w3.org/2000/svg">
<g clip-path="url(#clip0_202_970)">
<path d="M333.402 188.534L332.739 128.656L280.538 99.2921L229.021 129.823L229.695 189.701L281.885 219.065L333.402 188.534ZM238.582 184.441L238.012 134.891L280.647 109.632L323.841 133.927L324.4 183.477L281.776 208.731L238.582 184.441Z" fill="#BBBBBB" fill-opacity="0.1"/>
<path d="M285.809 90.6779L338.011 120.031L389.544 89.4998L388.859 29.6215L336.668 0.268583L285.152 30.7886L285.809 90.6779ZM379.977 34.8762L380.536 84.4479L337.901 109.691L294.708 85.4067L294.138 35.8515L336.784 10.6081L379.977 34.8762Z" fill="#BBBBBB" fill-opacity="0.1"/>
<path d="M273.94 30.9232L221.749 1.56488L170.211 32.0849L170.884 91.9742L223.086 121.327L274.625 90.8016L273.94 30.9232ZM179.777 86.6975L179.208 37.1423L221.864 11.888L265.047 36.1779L265.622 85.7441L222.977 110.988L179.777 86.6975Z" fill="#BBBBBB" fill-opacity="0.1"/>
</g>
<g clip-path="url(#clip1_202_970)">
<path d="M509.53 290.766L508.873 230.888L457.114 201.524L406.033 232.055L406.702 291.933L458.45 321.297L509.53 290.766ZM415.514 286.673L414.949 237.123L457.222 211.863L500.05 236.159L500.604 285.708L458.342 310.963L415.514 286.673Z" fill="url(#paint0_linear_202_970)"/>
<path d="M462.34 192.909L514.1 222.262L565.196 191.731L564.517 131.853L512.769 102.5L461.689 133.02L462.34 192.909ZM555.711 137.108L556.265 186.679L513.991 211.923L471.164 187.638L470.598 138.083L512.883 112.84L555.711 137.108Z" fill="#BBBBBB" fill-opacity="0.1"/>
<path d="M450.572 133.155L398.824 103.796L347.722 134.316L348.39 194.206L400.149 223.558L451.251 193.033L450.572 133.155ZM357.207 188.929L356.642 139.374L398.938 114.119L441.754 138.409L442.325 187.976L400.04 213.219L357.207 188.929Z" fill="url(#paint1_linear_202_970)"/>
</g>
<path d="M338.253 389.258L337.592 329.597L285.579 300.339L234.249 330.76L234.921 390.421L286.922 419.679L338.253 389.258ZM243.776 385.18L243.208 335.81L285.689 310.641L328.726 334.849L329.283 384.219L286.813 409.382L243.776 385.18Z" fill="#BBBBBB" fill-opacity="0.1"/>
<path d="M290.832 291.756L342.844 321.003L394.191 290.583L393.509 230.921L341.507 201.675L290.177 232.084L290.832 291.756ZM384.659 236.157L385.216 285.549L342.735 310.701L299.698 286.504L299.13 237.129L341.622 211.977L384.659 236.157Z" fill="#BBBBBB" fill-opacity="0.1"/>
<path d="M279.006 232.217L227.004 202.965L175.652 233.375L176.324 293.047L228.336 322.294L279.688 291.879L279.006 232.217ZM185.184 287.79L184.617 238.414L227.119 213.251L270.145 237.453L270.718 286.84L228.227 311.992L185.184 287.79Z" fill="url(#paint2_linear_202_970)"/>
<path d="M162.601 290.744L161.94 231.082L109.928 201.825L58.5975 232.245L59.269 291.907L111.271 321.164L162.601 290.744ZM68.1243 286.665L67.5565 237.295L110.037 212.127L153.074 236.334L153.631 285.705L111.162 310.867L68.1243 286.665Z" fill="#BBBBBB" fill-opacity="0.1"/>
<path d="M115.18 193.243L167.192 222.489L218.539 192.069L217.856 132.407L165.855 103.161L114.525 133.57L115.18 193.243ZM209.007 137.643L209.563 187.035L167.083 212.187L124.046 187.99L123.478 138.615L165.969 113.463L209.007 137.643Z" fill="#BBBBBB" fill-opacity="0.1"/>
<path d="M103.354 133.7L51.3519 104.448L-7.53137e-05 134.858L0.671446 194.53L52.6841 223.776L104.036 193.362L103.354 133.7ZM9.53219 189.272L8.96441 139.897L51.4666 114.734L94.4929 138.936L95.0661 188.322L52.5749 213.474L9.53219 189.272Z" fill="#BBBBBB" fill-opacity="0.1"/>
<defs>
<linearGradient id="paint0_linear_202_970" x1="501.159" y1="201.524" x2="462.217" y2="337.399" gradientUnits="userSpaceOnUse">
<stop offset="0.197174" stop-color="#9B51E0"/>
<stop offset="1" stop-color="#3081ED" stop-opacity="0.8"/>
</linearGradient>
<linearGradient id="paint1_linear_202_970" x1="442.877" y1="103.796" x2="403.952" y2="239.668" gradientUnits="userSpaceOnUse">
<stop offset="0.197174" stop-color="#9B51E0"/>
<stop offset="1" stop-color="#3081ED" stop-opacity="0.8"/>
</linearGradient>
<linearGradient id="paint2_linear_202_970" x1="271.274" y1="202.965" x2="232.769" y2="338.518" gradientUnits="userSpaceOnUse">
<stop offset="0.197174" stop-color="#9B51E0"/>
<stop offset="1" stop-color="#3081ED" stop-opacity="0.8"/>
</linearGradient>
<clipPath id="clip0_202_970">
<rect width="219.333" height="219.333" fill="white" transform="translate(389.544) rotate(90)"/>
</clipPath>
<clipPath id="clip1_202_970">
<rect width="219.333" height="217.474" fill="white" transform="translate(565.196 102.231) rotate(90)"/>
</clipPath>
</defs>
</svg>
