<svg width="60" height="60" viewBox="0 0 60 60" fill="none" xmlns="http://www.w3.org/2000/svg">
<g clip-path="url(#clip0_202_1059)">
<path d="M58.0366 24.8865C45.1209 24.8865 34.6133 14.3789 34.6133 1.46341C34.6133 0.655171 33.958 0 33.1499 0H0.963415C0.155317 0 -0.5 0.655171 -0.5 1.46341V58.5366C-0.5 59.3448 0.155317 60 0.963415 60H58.0366C58.8447 60 59.5 59.3448 59.5 58.5366V26.35C59.5 25.5417 58.8447 24.8865 58.0366 24.8865ZM56.5732 57.0732H53.7682V54.6496C53.7682 53.8414 53.1129 53.1862 52.3048 53.1862C51.4967 53.1862 50.8414 53.8414 50.8414 54.6496V57.0732H31.8287C32.1046 56.5933 32.3681 56.1057 32.6127 55.6125C32.972 54.8886 32.6762 54.0104 31.9521 53.6513C31.2283 53.2921 30.3501 53.5876 29.9908 54.3119C29.6244 55.0504 29.2151 55.7783 28.7744 56.4754C28.656 56.6628 28.587 56.8668 28.5611 57.0732H2.42683V42.0683L3.31307 41.4985C3.99283 41.0614 4.18951 40.1558 3.75239 39.476C3.45473 39.013 2.93976 38.7748 2.42683 38.8076V21.6754C3.10702 21.3925 3.47976 20.6374 3.26785 19.914C3.13893 19.4731 2.82005 19.1397 2.42683 18.9752V2.92683H31.7267C32.0076 8.03078 33.7492 12.7515 36.5377 16.6796C36.021 17.152 35.9029 17.9406 36.2943 18.5492C36.574 18.9841 37.0454 19.2212 37.5267 19.2212C37.7977 19.2212 38.0719 19.146 38.3168 18.9885L38.3557 18.9635C41.645 22.6586 45.9561 25.4242 50.8413 26.813V29.7717C50.8413 30.58 51.4966 31.2351 52.3047 31.2351C53.1128 31.2351 53.7681 30.58 53.7681 29.7717V27.4661C54.6883 27.6167 55.6239 27.7212 56.573 27.7734V57.0732H56.5732Z" fill="url(#paint0_linear_202_1059)"/>
<path d="M20.4251 27.0144L18.0384 28.5493C17.3586 28.9864 17.1619 29.8919 17.5991 30.5717C17.8787 31.0066 18.3501 31.2439 18.8314 31.2439C19.1024 31.2439 19.3767 31.1685 19.6215 31.0112L22.0082 29.4763C22.6879 29.0392 22.8846 28.1337 22.4475 27.4539C22.0104 26.774 21.1051 26.5773 20.4251 27.0144V27.0144Z" fill="url(#paint1_linear_202_1059)"/>
<path d="M28.6793 23.4464C28.2422 22.7665 27.3366 22.5696 26.6569 23.007L24.2702 24.5417C23.5904 24.9788 23.3938 25.8844 23.8309 26.5642C24.1105 26.9991 24.5819 27.2362 25.0632 27.2362C25.3342 27.2362 25.6085 27.1609 25.8533 27.0035L28.24 25.4688C28.9196 25.0317 29.1164 24.1261 28.6793 23.4464Z" fill="url(#paint2_linear_202_1059)"/>
<path d="M7.96162 35.0292L5.57494 36.5638C4.89519 37.001 4.6985 37.9065 5.13562 38.5863C5.41528 39.0212 5.88665 39.2583 6.36797 39.2583C6.63899 39.2583 6.91323 39.1831 7.15806 39.0256L9.54475 37.4909C10.2245 37.0538 10.4212 36.1482 9.98406 35.4685C9.54694 34.7887 8.64167 34.5919 7.96162 35.0292V35.0292Z" fill="url(#paint3_linear_202_1059)"/>
<path d="M31.2949 23.2286C31.5659 23.2286 31.8401 23.1534 32.085 22.9959L34.4717 21.4612C35.1514 21.0241 35.3481 20.1185 34.911 19.4388C34.4738 18.7589 33.5684 18.5621 32.8885 18.9995L30.5019 20.5341C29.8221 20.9713 29.6254 21.8768 30.0625 22.5566C30.3422 22.9915 30.8136 23.2286 31.2949 23.2286Z" fill="url(#paint4_linear_202_1059)"/>
<path d="M14.1933 31.0218L11.8066 32.5565C11.1268 32.9936 10.9301 33.8992 11.3673 34.579C11.6469 35.0139 12.1183 35.251 12.5996 35.251C12.8706 35.251 13.1449 35.1757 13.3897 35.0183L15.7764 33.4836C16.4561 33.0465 16.6528 32.1409 16.2157 31.4611C15.7786 30.7814 14.8733 30.5846 14.1933 31.0218Z" fill="url(#paint5_linear_202_1059)"/>
<path d="M52.3048 46.3081C51.4967 46.3081 50.8414 46.9633 50.8414 47.7715V50.4057C50.8414 51.2139 51.4967 51.8691 52.3048 51.8691C53.1129 51.8691 53.7682 51.2139 53.7682 50.4057V47.7715C53.7682 46.9634 53.1129 46.3081 52.3048 46.3081Z" fill="url(#paint6_linear_202_1059)"/>
<path d="M52.3048 32.552C51.4967 32.552 50.8414 33.2072 50.8414 34.0154V36.6496C50.8414 37.4578 51.4967 38.113 52.3048 38.113C53.1129 38.113 53.7682 37.4578 53.7682 36.6496V34.0154C53.7682 33.2073 53.1129 32.552 52.3048 32.552V32.552Z" fill="url(#paint7_linear_202_1059)"/>
<path d="M52.3048 39.4302C51.4967 39.4302 50.8414 40.0853 50.8414 40.8936V43.5277C50.8414 44.336 51.4967 44.9912 52.3048 44.9912C53.1129 44.9912 53.7682 44.336 53.7682 43.5277V40.8936C53.7682 40.0855 53.1129 39.4302 52.3048 39.4302Z" fill="url(#paint8_linear_202_1059)"/>
<path d="M33.2004 38.9C33.3169 38.9 33.4351 38.886 33.5532 38.8569C34.3378 38.6625 34.8163 37.8691 34.6221 37.0845C34.3997 36.1864 34.1276 35.2899 33.8134 34.4199C33.539 33.6598 32.7006 33.2657 31.9398 33.5407C31.1797 33.8153 30.7861 34.6541 31.0606 35.4142C31.3405 36.1892 31.5829 36.9879 31.781 37.788C31.9461 38.4544 32.5435 38.9 33.2004 38.9V38.9Z" fill="url(#paint9_linear_202_1059)"/>
<path d="M22.5302 21.4231C21.7284 20.9619 20.8937 20.5373 20.0496 20.1617C19.3113 19.8331 18.4463 20.1653 18.1177 20.9036C17.7891 21.642 18.1212 22.5071 18.8595 22.8356C19.612 23.1704 20.3559 23.5487 21.0708 23.96C21.3007 24.0922 21.5515 24.155 21.7991 24.155C22.3057 24.155 22.7983 23.8918 23.0691 23.4211C23.4721 22.7207 23.2308 21.8261 22.5302 21.4231Z" fill="url(#paint10_linear_202_1059)"/>
<path d="M31.9448 30.3448C31.4907 29.5395 30.9897 28.7485 30.4552 27.9937C29.9882 27.334 29.075 27.1778 28.4153 27.645C27.7556 28.1121 27.5996 29.0254 28.0666 29.685C28.5432 30.3583 28.9903 31.0638 29.3949 31.782C29.6639 32.259 30.1601 32.5272 30.6712 32.5272C30.9145 32.5272 31.1614 32.4663 31.3884 32.3383C32.0926 31.9414 32.3415 31.0489 31.9448 30.3448V30.3448Z" fill="url(#paint11_linear_202_1059)"/>
<path d="M6.01516 20.9413C6.07268 20.9413 6.13092 20.938 6.18931 20.931C7.00604 20.8341 7.83975 20.7783 8.66731 20.7651C9.47541 20.7524 10.1202 20.0869 10.1075 19.2788C10.0946 18.4707 9.43048 17.8282 8.62107 17.8388C7.69414 17.8534 6.76004 17.9159 5.84468 18.0246C5.04214 18.1197 4.46863 18.8476 4.56375 19.6502C4.65199 20.3942 5.28375 20.9413 6.01516 20.9413V20.9413Z" fill="url(#paint12_linear_202_1059)"/>
<path d="M33.763 40.1609C32.9571 40.2228 32.354 40.9262 32.4159 41.732C32.4636 42.3529 32.4878 42.9848 32.4878 43.6101C32.4878 43.8122 32.4853 44.0139 32.4803 44.2148C32.4602 45.0228 33.099 45.694 33.907 45.7141C33.9194 45.7144 33.9317 45.7145 33.944 45.7145C34.7353 45.7145 35.3865 45.0831 35.4062 44.2874C35.4118 44.0623 35.4146 43.8365 35.4146 43.6101C35.4146 42.9103 35.3875 42.2031 35.3341 41.5079C35.2722 40.702 34.5683 40.099 33.763 40.1609V40.1609Z" fill="url(#paint13_linear_202_1059)"/>
<path d="M15.8174 18.6869C14.9225 18.4565 14.0045 18.2705 13.0893 18.1339C12.2898 18.0137 11.5449 18.5656 11.4257 19.365C11.3064 20.1645 11.8575 20.9092 12.6568 21.0286C13.4726 21.1505 14.2906 21.3163 15.0882 21.5215C15.2104 21.553 15.3331 21.568 15.4537 21.568C16.1055 21.568 16.7001 21.1293 16.87 20.4689C17.0714 19.686 16.6003 18.8882 15.8174 18.6869V18.6869Z" fill="url(#paint14_linear_202_1059)"/>
<path d="M33.7672 47.0277C32.9723 46.8755 32.2065 47.3953 32.0541 48.1892C31.8987 48.9989 31.6992 49.8093 31.461 50.598C31.2271 51.3717 31.665 52.1884 32.4386 52.4221C32.5798 52.4647 32.7222 52.4851 32.8624 52.4851C33.4908 52.4851 34.0716 52.077 34.2626 51.4446C34.5301 50.5593 34.754 49.6497 34.9286 48.7408C35.0809 47.9469 34.561 47.1799 33.7672 47.0277V47.0277Z" fill="url(#paint15_linear_202_1059)"/>
</g>
<defs>
<linearGradient id="paint0_linear_202_1059" x1="-0.5" y1="4.85294" x2="68.9009" y2="22.0404" gradientUnits="userSpaceOnUse">
<stop offset="0.197174" stop-color="#9B51E0"/>
<stop offset="1" stop-color="#3081ED" stop-opacity="0.8"/>
</linearGradient>
<linearGradient id="paint1_linear_202_1059" x1="17.3664" y1="27.1426" x2="23.3678" y2="28.9126" gradientUnits="userSpaceOnUse">
<stop offset="0.197174" stop-color="#9B51E0"/>
<stop offset="1" stop-color="#3081ED" stop-opacity="0.8"/>
</linearGradient>
<linearGradient id="paint2_linear_202_1059" x1="23.5982" y1="23.1351" x2="29.5995" y2="24.9051" gradientUnits="userSpaceOnUse">
<stop offset="0.197174" stop-color="#9B51E0"/>
<stop offset="1" stop-color="#3081ED" stop-opacity="0.8"/>
</linearGradient>
<linearGradient id="paint3_linear_202_1059" x1="4.90292" y1="35.1573" x2="10.9043" y2="36.9273" gradientUnits="userSpaceOnUse">
<stop offset="0.197174" stop-color="#9B51E0"/>
<stop offset="1" stop-color="#3081ED" stop-opacity="0.8"/>
</linearGradient>
<linearGradient id="paint4_linear_202_1059" x1="29.8298" y1="19.1275" x2="35.8312" y2="20.8975" gradientUnits="userSpaceOnUse">
<stop offset="0.197174" stop-color="#9B51E0"/>
<stop offset="1" stop-color="#3081ED" stop-opacity="0.8"/>
</linearGradient>
<linearGradient id="paint5_linear_202_1059" x1="11.1346" y1="31.15" x2="17.1359" y2="32.92" gradientUnits="userSpaceOnUse">
<stop offset="0.197174" stop-color="#9B51E0"/>
<stop offset="1" stop-color="#3081ED" stop-opacity="0.8"/>
</linearGradient>
<linearGradient id="paint6_linear_202_1059" x1="50.8414" y1="46.7579" x2="54.3744" y2="47.2184" gradientUnits="userSpaceOnUse">
<stop offset="0.197174" stop-color="#9B51E0"/>
<stop offset="1" stop-color="#3081ED" stop-opacity="0.8"/>
</linearGradient>
<linearGradient id="paint7_linear_202_1059" x1="50.8414" y1="33.0018" x2="54.3744" y2="33.4623" gradientUnits="userSpaceOnUse">
<stop offset="0.197174" stop-color="#9B51E0"/>
<stop offset="1" stop-color="#3081ED" stop-opacity="0.8"/>
</linearGradient>
<linearGradient id="paint8_linear_202_1059" x1="50.8414" y1="39.88" x2="54.3744" y2="40.3405" gradientUnits="userSpaceOnUse">
<stop offset="0.197174" stop-color="#9B51E0"/>
<stop offset="1" stop-color="#3081ED" stop-opacity="0.8"/>
</linearGradient>
<linearGradient id="paint9_linear_202_1059" x1="30.9732" y1="33.8937" x2="35.3815" y2="34.6337" gradientUnits="userSpaceOnUse">
<stop offset="0.197174" stop-color="#9B51E0"/>
<stop offset="1" stop-color="#3081ED" stop-opacity="0.8"/>
</linearGradient>
<linearGradient id="paint10_linear_202_1059" x1="17.9909" y1="20.3682" x2="23.8735" y2="22.2328" gradientUnits="userSpaceOnUse">
<stop offset="0.197174" stop-color="#9B51E0"/>
<stop offset="1" stop-color="#3081ED" stop-opacity="0.8"/>
</linearGradient>
<linearGradient id="paint11_linear_202_1059" x1="27.7974" y1="27.7924" x2="32.8989" y2="28.8558" gradientUnits="userSpaceOnUse">
<stop offset="0.197174" stop-color="#9B51E0"/>
<stop offset="1" stop-color="#3081ED" stop-opacity="0.8"/>
</linearGradient>
<linearGradient id="paint12_linear_202_1059" x1="4.55344" y1="18.0896" x2="10.2519" y2="20.6159" gradientUnits="userSpaceOnUse">
<stop offset="0.197174" stop-color="#9B51E0"/>
<stop offset="1" stop-color="#3081ED" stop-opacity="0.8"/>
</linearGradient>
<linearGradient id="paint13_linear_202_1059" x1="32.4115" y1="40.606" x2="36.0333" y2="41.0907" gradientUnits="userSpaceOnUse">
<stop offset="0.197174" stop-color="#9B51E0"/>
<stop offset="1" stop-color="#3081ED" stop-opacity="0.8"/>
</linearGradient>
<linearGradient id="paint14_linear_202_1059" x1="11.4095" y1="18.3965" x2="17.2566" y2="20.7076" gradientUnits="userSpaceOnUse">
<stop offset="0.197174" stop-color="#9B51E0"/>
<stop offset="1" stop-color="#3081ED" stop-opacity="0.8"/>
</linearGradient>
<linearGradient id="paint15_linear_202_1059" x1="31.398" y1="47.4448" x2="35.6549" y2="48.1286" gradientUnits="userSpaceOnUse">
<stop offset="0.197174" stop-color="#9B51E0"/>
<stop offset="1" stop-color="#3081ED" stop-opacity="0.8"/>
</linearGradient>
<clipPath id="clip0_202_1059">
<rect width="59" height="60" fill="white" transform="translate(0.5)"/>
</clipPath>
</defs>
</svg>
