<svg width="61" height="60" viewBox="0 0 61 60" fill="none" xmlns="http://www.w3.org/2000/svg">
<g clip-path="url(#clip0_202_1047)">
<path d="M10.3667 7.71376C9.77617 7.12323 8.82887 7.12323 8.23834 7.70145C7.63551 8.29198 7.63551 9.23929 8.22604 9.82981L11.8184 13.4468C12.1014 13.7298 12.4828 13.8897 12.8887 13.8897C13.2824 13.8897 13.6638 13.7298 13.9468 13.4468L24.8838 2.57125C25.4743 1.98073 25.4743 1.03342 24.8961 0.442895C24.3056 -0.147632 23.3583 -0.147632 22.7678 0.442895L19.4584 3.7277C17.6991 1.90691 15.2508 0.861185 12.6796 0.861185C7.47558 0.861185 3.24347 5.09329 3.24347 10.2973C3.24347 15.5013 7.47558 19.7334 12.6796 19.7334C16.8748 19.7334 20.5041 17.0392 21.722 13.0285C21.9681 12.2288 21.5129 11.3922 20.7132 11.1462C19.9136 10.9124 19.077 11.3553 18.8309 12.155C18.0189 14.837 15.4846 16.7193 12.6796 16.7193C9.13644 16.7193 6.25762 13.8405 6.25762 10.2973C6.25762 6.75415 9.13644 3.87533 12.6796 3.87533C14.4389 3.87533 16.112 4.61349 17.3177 5.86836L12.901 10.2604L10.3667 7.71376Z" fill="white"/>
<path d="M10.3667 7.71376C9.77617 7.12323 8.82887 7.12323 8.23834 7.70145C7.63551 8.29198 7.63551 9.23929 8.22604 9.82981L11.8184 13.4468C12.1014 13.7298 12.4828 13.8897 12.8887 13.8897C13.2824 13.8897 13.6638 13.7298 13.9468 13.4468L24.8838 2.57125C25.4743 1.98073 25.4743 1.03342 24.8961 0.442895C24.3056 -0.147632 23.3583 -0.147632 22.7678 0.442895L19.4584 3.7277C17.6991 1.90691 15.2508 0.861185 12.6796 0.861185C7.47558 0.861185 3.24347 5.09329 3.24347 10.2973C3.24347 15.5013 7.47558 19.7334 12.6796 19.7334C16.8748 19.7334 20.5041 17.0392 21.722 13.0285C21.9681 12.2288 21.5129 11.3922 20.7132 11.1462C19.9136 10.9124 19.077 11.3553 18.8309 12.155C18.0189 14.837 15.4846 16.7193 12.6796 16.7193C9.13644 16.7193 6.25762 13.8405 6.25762 10.2973C6.25762 6.75415 9.13644 3.87533 12.6796 3.87533C14.4389 3.87533 16.112 4.61349 17.3177 5.86836L12.901 10.2604L10.3667 7.71376Z" fill="url(#paint0_linear_202_1047)"/>
<path d="M12.6796 20.9883C7.47558 20.9883 3.24347 25.2204 3.24347 30.4244C3.24347 35.6284 7.47558 39.8605 12.6796 39.8605C17.8836 39.8605 22.1157 35.6284 22.1157 30.4244C22.1157 25.2204 17.8836 20.9883 12.6796 20.9883ZM12.6796 36.8464C9.13644 36.8464 6.25762 33.9676 6.25762 30.4244C6.25762 26.8812 9.13644 24.0024 12.6796 24.0024C16.2228 24.0024 19.1016 26.8812 19.1016 30.4244C19.1016 33.9676 16.2228 36.8464 12.6796 36.8464Z" fill="white"/>
<path d="M12.6796 20.9883C7.47558 20.9883 3.24347 25.2204 3.24347 30.4244C3.24347 35.6284 7.47558 39.8605 12.6796 39.8605C17.8836 39.8605 22.1157 35.6284 22.1157 30.4244C22.1157 25.2204 17.8836 20.9883 12.6796 20.9883ZM12.6796 36.8464C9.13644 36.8464 6.25762 33.9676 6.25762 30.4244C6.25762 26.8812 9.13644 24.0024 12.6796 24.0024C16.2228 24.0024 19.1016 26.8812 19.1016 30.4244C19.1016 33.9676 16.2228 36.8464 12.6796 36.8464Z" fill="url(#paint1_linear_202_1047)"/>
<path d="M22.1157 50.5638C22.1157 45.3598 17.8836 41.1277 12.6796 41.1277C7.47558 41.1277 3.24347 45.3598 3.24347 50.5638C3.24347 55.7678 7.47558 59.9999 12.6796 59.9999C17.8836 59.9999 22.1157 55.7678 22.1157 50.5638ZM12.6796 56.9981C9.13644 56.9981 6.25762 54.1193 6.25762 50.5761C6.25762 47.033 9.13644 44.1541 12.6796 44.1541C16.2228 44.1541 19.1016 47.033 19.1016 50.5761C19.1016 54.1193 16.2228 56.9981 12.6796 56.9981Z" fill="white"/>
<path d="M22.1157 50.5638C22.1157 45.3598 17.8836 41.1277 12.6796 41.1277C7.47558 41.1277 3.24347 45.3598 3.24347 50.5638C3.24347 55.7678 7.47558 59.9999 12.6796 59.9999C17.8836 59.9999 22.1157 55.7678 22.1157 50.5638ZM12.6796 56.9981C9.13644 56.9981 6.25762 54.1193 6.25762 50.5761C6.25762 47.033 9.13644 44.1541 12.6796 44.1541C16.2228 44.1541 19.1016 47.033 19.1016 50.5761C19.1016 54.1193 16.2228 56.9981 12.6796 56.9981Z" fill="url(#paint2_linear_202_1047)"/>
<path d="M56.2433 28.9111H26.9261C26.0895 28.9111 25.4129 29.5878 25.4129 30.4244C25.4129 31.2609 26.0895 31.9376 26.9261 31.9376H56.2433C57.0799 31.9376 57.7565 31.2609 57.7565 30.4244C57.7565 29.5878 57.0799 28.9111 56.2433 28.9111Z" fill="white"/>
<path d="M56.2433 28.9111H26.9261C26.0895 28.9111 25.4129 29.5878 25.4129 30.4244C25.4129 31.2609 26.0895 31.9376 26.9261 31.9376H56.2433C57.0799 31.9376 57.7565 31.2609 57.7565 30.4244C57.7565 29.5878 57.0799 28.9111 56.2433 28.9111Z" fill="url(#paint3_linear_202_1047)"/>
<path d="M56.2433 8.79639H26.9261C26.0895 8.79639 25.4129 9.47303 25.4129 10.3096C25.4129 11.1462 26.0895 11.8228 26.9261 11.8228H56.2433C57.0799 11.8228 57.7565 11.1462 57.7565 10.3096C57.7565 9.47303 57.0799 8.79639 56.2433 8.79639Z" fill="white"/>
<path d="M56.2433 8.79639H26.9261C26.0895 8.79639 25.4129 9.47303 25.4129 10.3096C25.4129 11.1462 26.0895 11.8228 26.9261 11.8228H56.2433C57.0799 11.8228 57.7565 11.1462 57.7565 10.3096C57.7565 9.47303 57.0799 8.79639 56.2433 8.79639Z" fill="url(#paint4_linear_202_1047)"/>
<path d="M56.2433 49.063H26.9261C26.0895 49.063 25.4129 49.7396 25.4129 50.5762C25.4129 51.4128 26.0895 52.0894 26.9261 52.0894H56.2433C57.0799 52.0894 57.7565 51.4128 57.7565 50.5762C57.7565 49.7273 57.0799 49.063 56.2433 49.063Z" fill="white"/>
<path d="M56.2433 49.063H26.9261C26.0895 49.063 25.4129 49.7396 25.4129 50.5762C25.4129 51.4128 26.0895 52.0894 26.9261 52.0894H56.2433C57.0799 52.0894 57.7565 51.4128 57.7565 50.5762C57.7565 49.7273 57.0799 49.063 56.2433 49.063Z" fill="url(#paint5_linear_202_1047)"/>
</g>
<defs>
<linearGradient id="paint0_linear_202_1047" x1="3.24347" y1="1.59609" x2="28.4211" y2="8.57443" gradientUnits="userSpaceOnUse">
<stop offset="0.197174" stop-color="#9B51E0"/>
<stop offset="1" stop-color="#3081ED" stop-opacity="0.8"/>
</linearGradient>
<linearGradient id="paint1_linear_202_1047" x1="3.24347" y1="22.5147" x2="25.0727" y2="27.9208" gradientUnits="userSpaceOnUse">
<stop offset="0.197174" stop-color="#9B51E0"/>
<stop offset="1" stop-color="#3081ED" stop-opacity="0.8"/>
</linearGradient>
<linearGradient id="paint2_linear_202_1047" x1="3.24347" y1="42.6541" x2="25.0727" y2="48.0602" gradientUnits="userSpaceOnUse">
<stop offset="0.197174" stop-color="#9B51E0"/>
<stop offset="1" stop-color="#3081ED" stop-opacity="0.8"/>
</linearGradient>
<linearGradient id="paint3_linear_202_1047" x1="25.4129" y1="29.1559" x2="30.3731" y2="42.2839" gradientUnits="userSpaceOnUse">
<stop offset="0.197174" stop-color="#9B51E0"/>
<stop offset="1" stop-color="#3081ED" stop-opacity="0.8"/>
</linearGradient>
<linearGradient id="paint4_linear_202_1047" x1="25.4129" y1="9.04117" x2="30.373" y2="22.1692" gradientUnits="userSpaceOnUse">
<stop offset="0.197174" stop-color="#9B51E0"/>
<stop offset="1" stop-color="#3081ED" stop-opacity="0.8"/>
</linearGradient>
<linearGradient id="paint5_linear_202_1047" x1="25.4129" y1="49.3078" x2="30.3731" y2="62.4358" gradientUnits="userSpaceOnUse">
<stop offset="0.197174" stop-color="#9B51E0"/>
<stop offset="1" stop-color="#3081ED" stop-opacity="0.8"/>
</linearGradient>
<clipPath id="clip0_202_1047">
<rect width="60" height="60" fill="white" transform="translate(0.5)"/>
</clipPath>
</defs>
</svg>
