<svg width="61" height="60" viewBox="0 0 61 60" fill="none" xmlns="http://www.w3.org/2000/svg">
<g clip-path="url(#clip0_202_1022)">
<path d="M51.0273 22.8151V20.5084C51.0273 14.9874 49.0735 9.85714 45.5315 6.05042C41.9012 2.14286 36.9096 0 31.4643 0H29.5609C24.1155 0 19.1239 2.14286 15.4937 6.05042C11.9517 9.85714 9.99788 14.9874 9.99788 20.5084V22.8151C5.69956 23.105 2.2836 26.6849 2.2836 31.0588V34.6639C2.2836 39.2143 5.98948 42.9202 10.5399 42.9202H15.1912C16.0231 42.9202 16.7038 42.2395 16.7038 41.4076V24.3025C16.7038 23.4706 16.0231 22.7899 15.1912 22.7899H13.0231V20.5084C13.0231 10.5378 20.1323 3.02521 29.5483 3.02521H31.4517C40.8802 3.02521 47.9769 10.5378 47.9769 20.5084V22.7899H45.8088C44.9769 22.7899 44.2962 23.4706 44.2962 24.3025V41.395C44.2962 42.2269 44.9769 42.9076 45.8088 42.9076H47.9265C47.3088 50.7983 41.876 52.6261 39.355 53.042C38.6618 50.9118 36.6575 49.374 34.3004 49.374H30.5189C27.5945 49.374 25.2122 51.7563 25.2122 54.6807C25.2122 57.605 27.5945 60 30.5189 60H34.313C36.7584 60 38.813 58.3361 39.4307 56.0924C40.666 55.916 42.6197 55.4748 44.5609 54.3403C47.2962 52.7395 50.5357 49.4748 50.9643 42.895C55.2878 42.6303 58.7164 39.0378 58.7164 34.6513V31.0462C58.729 26.6849 55.3256 23.0924 51.0273 22.8151ZM13.7038 39.8824H10.5651C7.67855 39.8824 5.33402 37.5378 5.33402 34.6513V31.0462C5.33402 28.1597 7.67855 25.8151 10.5651 25.8151H13.7038V39.8824ZM34.313 56.9748H30.5189C29.2584 56.9748 28.2374 55.9538 28.2374 54.6933C28.2374 53.4328 29.2584 52.4118 30.5189 52.4118H34.313C35.5735 52.4118 36.5945 53.4328 36.5945 54.6933C36.5945 55.9538 35.5735 56.9748 34.313 56.9748ZM55.7038 34.6513C55.7038 37.5378 53.3592 39.8824 50.4727 39.8824H47.334V25.8151H50.4727C53.3592 25.8151 55.7038 28.1597 55.7038 31.0462V34.6513Z" fill="white"/>
<path d="M51.0273 22.8151V20.5084C51.0273 14.9874 49.0735 9.85714 45.5315 6.05042C41.9012 2.14286 36.9096 0 31.4643 0H29.5609C24.1155 0 19.1239 2.14286 15.4937 6.05042C11.9517 9.85714 9.99788 14.9874 9.99788 20.5084V22.8151C5.69956 23.105 2.2836 26.6849 2.2836 31.0588V34.6639C2.2836 39.2143 5.98948 42.9202 10.5399 42.9202H15.1912C16.0231 42.9202 16.7038 42.2395 16.7038 41.4076V24.3025C16.7038 23.4706 16.0231 22.7899 15.1912 22.7899H13.0231V20.5084C13.0231 10.5378 20.1323 3.02521 29.5483 3.02521H31.4517C40.8802 3.02521 47.9769 10.5378 47.9769 20.5084V22.7899H45.8088C44.9769 22.7899 44.2962 23.4706 44.2962 24.3025V41.395C44.2962 42.2269 44.9769 42.9076 45.8088 42.9076H47.9265C47.3088 50.7983 41.876 52.6261 39.355 53.042C38.6618 50.9118 36.6575 49.374 34.3004 49.374H30.5189C27.5945 49.374 25.2122 51.7563 25.2122 54.6807C25.2122 57.605 27.5945 60 30.5189 60H34.313C36.7584 60 38.813 58.3361 39.4307 56.0924C40.666 55.916 42.6197 55.4748 44.5609 54.3403C47.2962 52.7395 50.5357 49.4748 50.9643 42.895C55.2878 42.6303 58.7164 39.0378 58.7164 34.6513V31.0462C58.729 26.6849 55.3256 23.0924 51.0273 22.8151ZM13.7038 39.8824H10.5651C7.67855 39.8824 5.33402 37.5378 5.33402 34.6513V31.0462C5.33402 28.1597 7.67855 25.8151 10.5651 25.8151H13.7038V39.8824ZM34.313 56.9748H30.5189C29.2584 56.9748 28.2374 55.9538 28.2374 54.6933C28.2374 53.4328 29.2584 52.4118 30.5189 52.4118H34.313C35.5735 52.4118 36.5945 53.4328 36.5945 54.6933C36.5945 55.9538 35.5735 56.9748 34.313 56.9748ZM55.7038 34.6513C55.7038 37.5378 53.3592 39.8824 50.4727 39.8824H47.334V25.8151H50.4727C53.3592 25.8151 55.7038 28.1597 55.7038 31.0462V34.6513Z" fill="url(#paint0_linear_202_1022)"/>
</g>
<defs>
<linearGradient id="paint0_linear_202_1022" x1="2.2836" y1="4.85294" x2="67.9965" y2="20.1595" gradientUnits="userSpaceOnUse">
<stop offset="0.197174" stop-color="#9B51E0"/>
<stop offset="1" stop-color="#3081ED" stop-opacity="0.8"/>
</linearGradient>
<clipPath id="clip0_202_1022">
<rect width="60" height="60" fill="white" transform="translate(0.5)"/>
</clipPath>
</defs>
</svg>
