<svg width="51" height="49" viewBox="0 0 51 49" fill="none" xmlns="http://www.w3.org/2000/svg">
<g id="play-button (2) 1" clip-path="url(#clip0_202_907)">
<g id="Vector">
<path d="M25.2829 48.0618C38.9458 48.0618 50.0218 37.3069 50.0218 24.0401C50.0218 10.7732 38.9458 0.0183105 25.2829 0.0183105C11.62 0.0183105 0.544098 10.7732 0.544098 24.0401C0.544098 37.3069 11.62 48.0618 25.2829 48.0618Z" fill="#14A997"/>
<path d="M25.2829 48.0618C38.9458 48.0618 50.0218 37.3069 50.0218 24.0401C50.0218 10.7732 38.9458 0.0183105 25.2829 0.0183105C11.62 0.0183105 0.544098 10.7732 0.544098 24.0401C0.544098 37.3069 11.62 48.0618 25.2829 48.0618Z" fill="url(#paint0_linear_202_907)"/>
</g>
<g id="Group">
<path id="Vector_2" d="M38.0789 24.0403L19.3115 36.4653V24.2664V11.6152L38.0789 24.0403Z" fill="white"/>
<path id="Vector_3" d="M19.3115 37.2936C19.175 37.2936 19.0377 37.2621 18.9131 37.1975C18.6333 37.0542 18.4584 36.7725 18.4584 36.4652V11.6151C18.4584 11.3078 18.6333 11.0262 18.9131 10.8829C19.1929 10.7387 19.5307 10.7586 19.7926 10.9309L38.56 23.356C38.792 23.51 38.932 23.766 38.932 24.0402C38.932 24.3143 38.792 24.5703 38.5592 24.7244L19.7918 37.1494C19.6476 37.2447 19.4796 37.2936 19.3115 37.2936ZM20.1646 13.1832V34.898L36.5647 24.0402L20.1646 13.1832Z" fill="white"/>
</g>
</g>
<defs>
<linearGradient id="paint0_linear_202_907" x1="0.544098" y1="3.90419" x2="57.5743" y2="18.4496" gradientUnits="userSpaceOnUse">
<stop offset="0.197174" stop-color="#9B51E0"/>
<stop offset="1" stop-color="#3081ED" stop-opacity="0.8"/>
</linearGradient>
<clipPath id="clip0_202_907">
<rect width="49.4777" height="48.0435" fill="white" transform="translate(0.544098 0.0183105)"/>
</clipPath>
</defs>
</svg>
