<svg width="61" height="60" viewBox="0 0 61 60" fill="none" xmlns="http://www.w3.org/2000/svg">
<g clip-path="url(#clip0_202_1001)">
<path d="M56.2998 27.1129L54.746 20.8979C55.1708 20.8076 55.4895 20.4308 55.4895 19.9792V18.9772C55.4895 16.8015 53.7194 15.0315 51.5438 15.0315H44.4666V12.9645C44.4666 11.8939 43.5957 11.0229 42.5251 11.0229H6.44984C5.37922 11.0229 4.50828 11.8939 4.50828 12.9645V30.0001C4.50828 30.5188 4.92887 30.9396 5.44777 30.9396C5.96656 30.9396 6.38727 30.519 6.38727 30.0001V12.9645C6.38727 12.9299 6.41527 12.9019 6.44984 12.9019H42.525C42.5595 12.9019 42.5875 12.9299 42.5875 12.9645V30.0003C42.5875 30.5191 43.0081 30.9398 43.527 30.9398C44.0458 30.9398 44.4665 30.5192 44.4665 30.0003V28.9353H55.5488C55.5498 28.9353 55.5505 28.9355 55.5513 28.9355C55.5522 28.9355 55.553 28.9354 55.5539 28.9354C56.9176 28.9363 58.0755 29.8314 58.4732 31.0648H55.552C55.0332 31.0648 54.6125 31.4854 54.6125 32.0043V34.0085C54.6125 35.6316 55.933 36.9521 57.5561 36.9521H58.6209V41.0856H56.1644C55.3575 38.7556 53.1425 37.0772 50.5415 37.0772C47.9405 37.0772 45.7255 38.7556 44.9186 41.0856H44.4663V34.0083C44.4663 33.4896 44.0457 33.0688 43.5268 33.0688C43.008 33.0688 42.5873 33.4894 42.5873 34.0083V41.0854H23.0957C22.2888 38.7554 20.0738 37.077 17.4729 37.077C14.8719 37.077 12.6568 38.7554 11.85 41.0854H6.44984C6.41527 41.0854 6.38727 41.0574 6.38727 41.0228V38.956H10.4582C10.977 38.956 11.3977 38.5354 11.3977 38.0165C11.3977 37.4976 10.9771 37.077 10.4582 37.077H1.43949C0.920703 37.077 0.5 37.4976 0.5 38.0165C0.5 38.5354 0.920586 38.956 1.43949 38.956H4.5084V41.0228C4.5084 42.0935 5.37934 42.9644 6.44996 42.9644H11.5246C11.5244 42.9853 11.523 43.006 11.523 43.027C11.523 46.3078 14.1922 48.9768 17.4729 48.9768C20.7535 48.9768 23.4227 46.3078 23.4227 43.027C23.4227 43.0059 23.4213 42.9853 23.4211 42.9644H44.5933C44.5931 42.9853 44.5917 43.006 44.5917 43.027C44.5917 46.3078 47.2609 48.9768 50.5415 48.9768C53.8222 48.9768 56.4914 46.3078 56.4914 43.027C56.4914 43.0059 56.49 42.9853 56.4897 42.9644H59.5604C60.0792 42.9644 60.4999 42.5438 60.4999 42.0249V32.0041C60.5 29.53 58.6746 27.4744 56.2998 27.1129ZM44.4666 16.9103H51.5438C52.6835 16.9103 53.6107 17.8375 53.6107 18.9772V19.0397H44.4666V16.9103ZM44.4666 27.0564V20.9186H52.8145L54.3489 27.0564H44.4666ZM17.4729 47.0982C15.2281 47.0982 13.4019 45.2721 13.4019 43.0272C13.4019 40.7824 15.2281 38.9562 17.4729 38.9562C19.7176 38.9562 21.5438 40.7824 21.5438 43.0272C21.5438 45.2721 19.7176 47.0982 17.4729 47.0982ZM50.5418 47.0982C48.297 47.0982 46.4708 45.2721 46.4708 43.0272C46.4708 40.7824 48.297 38.9562 50.5418 38.9562C52.7865 38.9562 54.6127 40.7824 54.6127 43.0272C54.6127 45.2721 52.7865 47.0982 50.5418 47.0982ZM58.6211 35.0731H57.5564C56.9693 35.0731 56.4916 34.5955 56.4916 34.0083V32.9436H58.621V35.0731H58.6211Z" fill="white"/>
<path d="M56.2998 27.1129L54.746 20.8979C55.1708 20.8076 55.4895 20.4308 55.4895 19.9792V18.9772C55.4895 16.8015 53.7194 15.0315 51.5438 15.0315H44.4666V12.9645C44.4666 11.8939 43.5957 11.0229 42.5251 11.0229H6.44984C5.37922 11.0229 4.50828 11.8939 4.50828 12.9645V30.0001C4.50828 30.5188 4.92887 30.9396 5.44777 30.9396C5.96656 30.9396 6.38727 30.519 6.38727 30.0001V12.9645C6.38727 12.9299 6.41527 12.9019 6.44984 12.9019H42.525C42.5595 12.9019 42.5875 12.9299 42.5875 12.9645V30.0003C42.5875 30.5191 43.0081 30.9398 43.527 30.9398C44.0458 30.9398 44.4665 30.5192 44.4665 30.0003V28.9353H55.5488C55.5498 28.9353 55.5505 28.9355 55.5513 28.9355C55.5522 28.9355 55.553 28.9354 55.5539 28.9354C56.9176 28.9363 58.0755 29.8314 58.4732 31.0648H55.552C55.0332 31.0648 54.6125 31.4854 54.6125 32.0043V34.0085C54.6125 35.6316 55.933 36.9521 57.5561 36.9521H58.6209V41.0856H56.1644C55.3575 38.7556 53.1425 37.0772 50.5415 37.0772C47.9405 37.0772 45.7255 38.7556 44.9186 41.0856H44.4663V34.0083C44.4663 33.4896 44.0457 33.0688 43.5268 33.0688C43.008 33.0688 42.5873 33.4894 42.5873 34.0083V41.0854H23.0957C22.2888 38.7554 20.0738 37.077 17.4729 37.077C14.8719 37.077 12.6568 38.7554 11.85 41.0854H6.44984C6.41527 41.0854 6.38727 41.0574 6.38727 41.0228V38.956H10.4582C10.977 38.956 11.3977 38.5354 11.3977 38.0165C11.3977 37.4976 10.9771 37.077 10.4582 37.077H1.43949C0.920703 37.077 0.5 37.4976 0.5 38.0165C0.5 38.5354 0.920586 38.956 1.43949 38.956H4.5084V41.0228C4.5084 42.0935 5.37934 42.9644 6.44996 42.9644H11.5246C11.5244 42.9853 11.523 43.006 11.523 43.027C11.523 46.3078 14.1922 48.9768 17.4729 48.9768C20.7535 48.9768 23.4227 46.3078 23.4227 43.027C23.4227 43.0059 23.4213 42.9853 23.4211 42.9644H44.5933C44.5931 42.9853 44.5917 43.006 44.5917 43.027C44.5917 46.3078 47.2609 48.9768 50.5415 48.9768C53.8222 48.9768 56.4914 46.3078 56.4914 43.027C56.4914 43.0059 56.49 42.9853 56.4897 42.9644H59.5604C60.0792 42.9644 60.4999 42.5438 60.4999 42.0249V32.0041C60.5 29.53 58.6746 27.4744 56.2998 27.1129ZM44.4666 16.9103H51.5438C52.6835 16.9103 53.6107 17.8375 53.6107 18.9772V19.0397H44.4666V16.9103ZM44.4666 27.0564V20.9186H52.8145L54.3489 27.0564H44.4666ZM17.4729 47.0982C15.2281 47.0982 13.4019 45.2721 13.4019 43.0272C13.4019 40.7824 15.2281 38.9562 17.4729 38.9562C19.7176 38.9562 21.5438 40.7824 21.5438 43.0272C21.5438 45.2721 19.7176 47.0982 17.4729 47.0982ZM50.5418 47.0982C48.297 47.0982 46.4708 45.2721 46.4708 43.0272C46.4708 40.7824 48.297 38.9562 50.5418 38.9562C52.7865 38.9562 54.6127 40.7824 54.6127 43.0272C54.6127 45.2721 52.7865 47.0982 50.5418 47.0982ZM58.6211 35.0731H57.5564C56.9693 35.0731 56.4916 34.5955 56.4916 34.0083V32.9436H58.621V35.0731H58.6211Z" fill="url(#paint0_linear_202_1001)"/>
<path d="M17.4729 41.0857C16.4022 41.0857 15.5313 41.9566 15.5313 43.0273C15.5313 44.0979 16.4022 44.9688 17.4729 44.9688C18.5435 44.9688 19.4144 44.0979 19.4144 43.0273C19.4144 41.9566 18.5435 41.0857 17.4729 41.0857Z" fill="white"/>
<path d="M17.4729 41.0857C16.4022 41.0857 15.5313 41.9566 15.5313 43.0273C15.5313 44.0979 16.4022 44.9688 17.4729 44.9688C18.5435 44.9688 19.4144 44.0979 19.4144 43.0273C19.4144 41.9566 18.5435 41.0857 17.4729 41.0857Z" fill="url(#paint1_linear_202_1001)"/>
<path d="M50.5417 41.0857C49.4711 41.0857 48.6002 41.9566 48.6002 43.0273C48.6002 44.0979 49.4711 44.9688 50.5417 44.9688C51.6124 44.9688 52.4833 44.0979 52.4833 43.0273C52.4833 41.9566 51.6124 41.0857 50.5417 41.0857Z" fill="white"/>
<path d="M50.5417 41.0857C49.4711 41.0857 48.6002 41.9566 48.6002 43.0273C48.6002 44.0979 49.4711 44.9688 50.5417 44.9688C51.6124 44.9688 52.4833 44.0979 52.4833 43.0273C52.4833 41.9566 51.6124 41.0857 50.5417 41.0857Z" fill="url(#paint2_linear_202_1001)"/>
<path d="M39.5187 37.0774H25.4895C24.9707 37.0774 24.55 37.498 24.55 38.0169C24.55 38.5358 24.9706 38.9564 25.4895 38.9564H39.5187C40.0375 38.9564 40.4582 38.5358 40.4582 38.0169C40.4582 37.498 40.0376 37.0774 39.5187 37.0774Z" fill="white"/>
<path d="M39.5187 37.0774H25.4895C24.9707 37.0774 24.55 37.498 24.55 38.0169C24.55 38.5358 24.9706 38.9564 25.4895 38.9564H39.5187C40.0375 38.9564 40.4582 38.5358 40.4582 38.0169C40.4582 37.498 40.0376 37.0774 39.5187 37.0774Z" fill="url(#paint3_linear_202_1001)"/>
<path d="M15.4687 33.0688H3.44362C2.92483 33.0688 2.50412 33.4894 2.50412 34.0083C2.50412 34.5272 2.92471 34.9478 3.44362 34.9478H15.4687C15.9875 34.9478 16.4082 34.5272 16.4082 34.0083C16.4082 33.4894 15.9875 33.0688 15.4687 33.0688Z" fill="white"/>
<path d="M15.4687 33.0688H3.44362C2.92483 33.0688 2.50412 33.4894 2.50412 34.0083C2.50412 34.5272 2.92471 34.9478 3.44362 34.9478H15.4687C15.9875 34.9478 16.4082 34.5272 16.4082 34.0083C16.4082 33.4894 15.9875 33.0688 15.4687 33.0688Z" fill="url(#paint4_linear_202_1001)"/>
<path d="M33.1685 20.3166C32.8017 19.9498 32.2067 19.9498 31.8399 20.3167L23.4854 28.6711L19.1393 24.325C18.7723 23.9581 18.1775 23.9581 17.8107 24.325C17.4438 24.6919 17.4438 25.2866 17.8107 25.6535L22.8212 30.664C23.0046 30.8475 23.245 30.9392 23.4854 30.9392C23.7257 30.9392 23.9663 30.8475 24.1496 30.664L33.1684 21.6453C33.5353 21.2782 33.5353 20.6835 33.1685 20.3166Z" fill="white"/>
<path d="M33.1685 20.3166C32.8017 19.9498 32.2067 19.9498 31.8399 20.3167L23.4854 28.6711L19.1393 24.325C18.7723 23.9581 18.1775 23.9581 17.8107 24.325C17.4438 24.6919 17.4438 25.2866 17.8107 25.6535L22.8212 30.664C23.0046 30.8475 23.245 30.9392 23.4854 30.9392C23.7257 30.9392 23.9663 30.8475 24.1496 30.664L33.1684 21.6453C33.5353 21.2782 33.5353 20.6835 33.1685 20.3166Z" fill="url(#paint5_linear_202_1001)"/>
</g>
<defs>
<linearGradient id="paint0_linear_202_1001" x1="0.5" y1="14.0927" x2="64.3677" y2="39.0975" gradientUnits="userSpaceOnUse">
<stop offset="0.197174" stop-color="#9B51E0"/>
<stop offset="1" stop-color="#3081ED" stop-opacity="0.8"/>
</linearGradient>
<linearGradient id="paint1_linear_202_1001" x1="15.5313" y1="41.3998" x2="20.0228" y2="42.5121" gradientUnits="userSpaceOnUse">
<stop offset="0.197174" stop-color="#9B51E0"/>
<stop offset="1" stop-color="#3081ED" stop-opacity="0.8"/>
</linearGradient>
<linearGradient id="paint2_linear_202_1001" x1="48.6002" y1="41.3998" x2="53.0917" y2="42.5121" gradientUnits="userSpaceOnUse">
<stop offset="0.197174" stop-color="#9B51E0"/>
<stop offset="1" stop-color="#3081ED" stop-opacity="0.8"/>
</linearGradient>
<linearGradient id="paint3_linear_202_1001" x1="24.55" y1="37.2294" x2="28.169" y2="44.8175" gradientUnits="userSpaceOnUse">
<stop offset="0.197174" stop-color="#9B51E0"/>
<stop offset="1" stop-color="#3081ED" stop-opacity="0.8"/>
</linearGradient>
<linearGradient id="paint4_linear_202_1001" x1="2.50412" y1="33.2208" x2="6.42047" y2="40.3979" gradientUnits="userSpaceOnUse">
<stop offset="0.197174" stop-color="#9B51E0"/>
<stop offset="1" stop-color="#3081ED" stop-opacity="0.8"/>
</linearGradient>
<linearGradient id="paint5_linear_202_1001" x1="17.5355" y1="20.9229" x2="34.8073" y2="27.167" gradientUnits="userSpaceOnUse">
<stop offset="0.197174" stop-color="#9B51E0"/>
<stop offset="1" stop-color="#3081ED" stop-opacity="0.8"/>
</linearGradient>
<clipPath id="clip0_202_1001">
<rect width="60" height="60" fill="white" transform="translate(0.5)"/>
</clipPath>
</defs>
</svg>
