<svg width="53" height="53" viewBox="0 0 53 53" fill="none" xmlns="http://www.w3.org/2000/svg">
<g id="streamline:nature-ecology-rose-flower-rose-plant-tree" clip-path="url(#clip0_379_65)">
<g id="Group">
<path id="Vector" d="M26.5 15.5215C32.5471 11.188 39.8934 9.05094 47.3214 9.46432V22.7143C47.3214 28.2365 45.1277 33.5325 41.2229 37.4373C37.3182 41.3421 32.0221 43.5357 26.5 43.5357C20.9778 43.5357 15.6818 41.3421 11.777 37.4373C7.87221 33.5325 5.67853 28.2365 5.67853 22.7143V9.46432C5.67853 9.46432 30.5128 6.4736 41.87 36.7593" stroke="white" stroke-width="3.78571" stroke-linecap="round" stroke-linejoin="round"/>
<path id="Vector_2" d="M37.5163 10.4486C36.9008 7.99286 35.4825 5.81318 33.4865 4.25575C31.4906 2.69831 29.0315 1.85242 26.4998 1.85242C23.9682 1.85242 21.5091 2.69831 19.5131 4.25575C17.5172 5.81318 16.0989 7.99286 15.4834 10.4486M26.4998 43.5357V51.1072" stroke="white" stroke-width="3.78571" stroke-linecap="round" stroke-linejoin="round"/>
</g>
</g>
<defs>
<clipPath id="clip0_379_65">
<rect width="53" height="53" fill="white"/>
</clipPath>
</defs>
</svg>
